# xmcd
#
# Track frame offsets: 
#        150
#        14747
#        27327
#        37897
#        53607
#        73710
#        95912
#        117037
#        150570
#        178710
#        202700
#
# Disc length: 2912 seconds
#
# Revision: 0
# Processed by: cddbd v1.5.2PL0 Copyright (c) Steve Scherf et al.
# Submitted via: ExactAudioCopy v0.99pb3
#
DISCID=890b5e0b
DTITLE=Georgia Possum  - Headlight Surprise
DYEAR=2001
DGENRE=Blues
TTITLE0=Mary Jane
TTITLE1=Leroy Jones
TTITLE2=Get Me To The Station
TTITLE3=Ugly Men
TTITLE4=Stayed Anyway
TTITLE5=Rock-N-Foundation
TTITLE6=Funky Right Thing
TTITLE7=Cornbeard
TTITLE8=Two Days Home
TTITLE9=I Wouldn't Do
TTITLE10=Touch
EXTD=
EXTT0=
EXTT1=
EXTT2=
EXTT3=
EXTT4=
EXTT5=
EXTT6=
EXTT7=
EXTT8=
EXTT9=
EXTT10=
PLAYORDER=
